<?xml version="1.0" encoding="UTF-8" standalone="no"?>
<!-- Created with Inkscape (http://www.inkscape.org/) -->

<svg
   width="144.36345mm"
   height="36.819466mm"
   viewBox="0 0 144.36345 36.819466"
   version="1.1"
   id="svg5"
   xmlns:xlink="http://www.w3.org/1999/xlink"
   xmlns="http://www.w3.org/2000/svg"
   xmlns:svg="http://www.w3.org/2000/svg">
  <defs
     id="defs2">
    <linearGradient
       id="linearGradient6643">
      <stop
         style="stop-color:#003500;stop-opacity:1;"
         offset="0"
         id="stop6639" />
      <stop
         style="stop-color:#1a6f33;stop-opacity:1;"
         offset="1"
         id="stop6641" />
    </linearGradient>
    <linearGradient
       xlink:href="#linearGradient6643"
       id="linearGradient6645"
       x1="35.18203"
       y1="61.431831"
       x2="173.59335"
       y2="84.780205"
       gradientUnits="userSpaceOnUse" />
    <linearGradient
       xlink:href="#linearGradient6643"
       id="linearGradient1998"
       gradientUnits="userSpaceOnUse"
       x1="35.18203"
       y1="61.431831"
       x2="173.59335"
       y2="84.780205" />
    <linearGradient
       xlink:href="#linearGradient6643"
       id="linearGradient2000"
       gradientUnits="userSpaceOnUse"
       x1="35.18203"
       y1="61.431831"
       x2="173.59335"
       y2="84.780205" />
    <linearGradient
       xlink:href="#linearGradient6643"
       id="linearGradient2002"
       gradientUnits="userSpaceOnUse"
       x1="35.18203"
       y1="61.431831"
       x2="173.59335"
       y2="84.780205" />
    <linearGradient
       xlink:href="#linearGradient6643"
       id="linearGradient2004"
       gradientUnits="userSpaceOnUse"
       x1="35.18203"
       y1="61.431831"
       x2="173.59335"
       y2="84.780205" />
    <linearGradient
       xlink:href="#linearGradient6643"
       id="linearGradient2006"
       gradientUnits="userSpaceOnUse"
       x1="35.18203"
       y1="61.431831"
       x2="173.59335"
       y2="84.780205" />
  </defs>
  <g
     id="layer1"
     transform="translate(-31.324736,-58.624716)">
    <g
       aria-label="SxncD"
       id="text790"
       style="font-size:3.175px;fill:url(#linearGradient6645);fill-opacity:1;stroke-width:0.264583"
       transform="translate(0.05386577,0.2147665)">
      <path
         d="m 54.488057,84.885861 c 0,3.224609 -1.16582,5.754688 -3.497461,7.590235 -2.33164,1.835547 -5.547981,2.75332 -9.649023,2.75332 -4.101041,0 -7.457942,-0.636654 -10.070703,-1.909961 v -5.605859 c 1.653646,0.777213 3.406511,1.389062 5.258594,1.835547 1.868619,0.446484 3.604947,0.669726 5.208984,0.669726 2.348177,0 4.076237,-0.446484 5.18418,-1.339453 1.124479,-0.892969 1.686718,-2.091862 1.686718,-3.59668 0,-1.355989 -0.51263,-2.505273 -1.53789,-3.447851 -1.025261,-0.942578 -3.141927,-2.058789 -6.35,-3.348633 -3.307291,-1.339453 -5.638932,-2.869076 -6.994922,-4.588867 -1.355989,-1.719792 -2.033984,-3.786849 -2.033984,-6.201172 0,-3.026172 1.07487,-5.407422 3.224609,-7.14375 2.14974,-1.736328 5.035352,-2.142514 8.656836,-2.142514 3.472656,0 6.879635,0.0013 10.692907,0.0013 l -0.0019,5.021589 c -3.221543,0 -8.309784,0.06204 -10.839862,0.06204 -1.918229,0 -3.373438,0.42168 -4.365625,1.265039 -0.992187,0.826823 -1.488281,1.464519 -1.488281,2.837045 0,0.942579 0.198437,1.752865 0.595312,2.43086 0.396875,0.661458 1.050065,1.289843 1.95957,1.885156 0.909505,0.595313 2.546615,1.380794 4.911329,2.356445 2.662369,1.107943 4.613671,2.141471 5.853906,3.100586 1.240234,0.959115 2.149739,2.042253 2.728515,3.249414 0.578776,1.207161 0.868164,2.629297 0.868164,4.266406 z"
         style="font-weight:600;font-size:50.8px;font-family:'Open Sans';-inkscape-font-specification:'Open Sans, Semi-Bold';fill:url(#linearGradient1998);fill-opacity:1"
         id="path1250" />
      <path
         d="m 57.528907,67.299338 h 6.697627 l 6.136524,9.577493 6.410329,-9.577493 h 7.182639 L 73.9615,81.01633 83.896366,94.733322 H 77.252162 L 70.712636,84.234734 63.759996,94.733322 H 57.113608 L 66.988422,81.01633 Z"
         style="font-weight:600;font-size:50.8px;font-family:'Open Sans';-inkscape-font-specification:'Open Sans, Semi-Bold';fill:url(#linearGradient2000);fill-opacity:1"
         id="path1247" />
      <path
         d="m 112.25818,94.733322 h -5.85391 V 77.866135 c 0,-2.116667 -0.42995,-3.695898 -1.28984,-4.737695 -0.84336,-1.041797 -2.19108,-1.562696 -4.04317,-1.562696 -2.463931,0 -4.266404,0.727604 -5.40742,2.182813 -1.141015,1.455208 -1.711523,3.894336 -1.711523,7.317383 V 94.733322 H 88.123215 V 67.299338 h 4.564063 l 0.818555,3.59668 h 0.297656 c 0.826823,-1.30638 2.000911,-2.315104 3.522265,-3.026172 1.521355,-0.711068 3.208076,-1.066602 5.060156,-1.066602 6.58151,0 9.87227,3.348633 9.87227,10.045899 z"
         style="font-weight:600;font-size:50.8px;font-family:'Open Sans';-inkscape-font-specification:'Open Sans, Semi-Bold';fill:url(#linearGradient2002);fill-opacity:1"
         id="path1244" />
      <path
         d="m 131.4322,95.229416 q -6.22598,0 -9.47539,-3.621484 -3.22461,-3.646289 -3.22461,-10.442774 0,-6.920507 3.37344,-10.64121 3.39824,-3.720704 9.79785,-3.720704 4.34082,0 7.81348,1.612305 l -1.76114,4.688086 q -3.6959,-1.438672 -6.10195,-1.438672 -7.11895,0 -7.11895,9.450586 0,4.613672 1.76114,6.945312 1.78593,2.306836 5.20898,2.306836 3.89434,0 7.36699,-1.934765 v 5.08496 q -1.56269,0.917774 -3.34863,1.314649 -1.76113,0.396875 -4.29121,0.396875 z"
         style="font-weight:600;font-size:50.8px;font-family:'Open Sans';-inkscape-font-specification:'Open Sans, Semi-Bold';fill:url(#linearGradient2004);fill-opacity:1"
         id="path1241" />
      <path
         id="path1255"
         style="font-weight:600;font-size:50.8px;font-family:'Open Sans';-inkscape-font-specification:'Open Sans, Semi-Bold';fill:url(#linearGradient2006);fill-opacity:1;stroke-width:2;stroke-dasharray:none"
         d="m 56.717304,58.468684 v 4.964038 h 87.204756 l 5.19686,-4.361668 5.10453,4.361668 h -2.15359 v -0.0016 -0.0015 h 2.56728 2.56729 c 8.11939,0 12.1791,4.340829 12.1791,13.022461 0,8.863533 -4.36563,13.295313 -13.09687,13.295313 0,0 -1.03878,0 -1.55817,0 -0.88621,0 -1.4918,0.08874 -2.11844,-0.537905 -0.61934,-0.619342 -0.54019,-1.213859 -0.54019,-2.089741 0,-6.197089 0,-18.591268 0,-18.591268 0,-0.529959 0.007,-0.792648 0.27484,-1.060452 0.26444,-0.264445 0.53132,-0.271287 1.05876,-0.271287 h 3.18919 l -7.48695,-6.515729 -7.48141,6.515729 h 3.22995 c 0.50139,0 0.76942,0.0038 1.03387,0.271634 0.25773,0.261014 0.25343,0.533892 0.25343,1.060779 V 89.4772 c 0,2.57961 0.82707,3.411531 1.32492,3.909388 0.55726,0.557267 1.33639,1.346549 3.97599,1.346549 h 4.84421 c 6.25077,0 11.03809,-1.579235 14.36191,-4.737695 3.32383,-3.174997 4.98575,-7.755605 4.98575,-13.741797 0,-5.638927 -1.60404,-10.012829 -4.81211,-13.12168 -3.20807,-3.108851 -7.69773,-4.663281 -13.46895,-4.663281 z" />
    </g>
    <g
       id="path1155">
      <path
         style="color:#000000;fill:#33aabb;stroke-width:2;-inkscape-stroke:none"
         d="m 142.90292,64.69666 h 9.23972"
         id="path1159" />
    </g>
  </g>
</svg>
